<?xml version="1.0" standalone="no"?>
<!DOCTYPE svg PUBLIC "-//W3C//DTD SVG 20010904//EN"
 "http://www.w3.org/TR/2001/REC-SVG-20010904/DTD/svg10.dtd">
<svg version="1.0" xmlns="http://www.w3.org/2000/svg"
 width="1200.000000pt" height="1200.000000pt" viewBox="0 0 1200.000000 1200.000000"
 preserveAspectRatio="xMidYMid meet">

<g transform="translate(0.000000,1200.000000) scale(0.100000,-0.100000)"
fill="#000000" stroke="none">
<path d="M0 6000 l0 -6000 6000 0 6000 0 0 6000 0 6000 -6000 0 -6000 0 0
-6000z m3770 2361 c6 -13 10 -142 10 -350 l0 -331 -45 0 -45 0 0 338 c0 250 3
341 12 350 18 18 56 14 68 -7z m6210 -1901 l0 -1890 -1890 0 -1890 0 0 1890 0
1890 1890 0 1890 0 0 -1890z m-6100 785 l0 -355 -145 0 -145 0 0 355 0 355
145 0 145 0 0 -355z m137 -512 l112 -78 -194 -3 c-106 -1 -284 -1 -395 0
l-201 3 108 77 108 76 175 1 175 1 112 -77z m338 -385 l123 -228 -745 0 c-409
0 -742 3 -740 8 2 4 53 97 112 207 59 110 114 210 122 223 l14 22 495 -2 495
-3 124 -227z m-70 -698 l-195 -390 -358 0 -358 0 -192 390 -191 390 745 0 744
0 -195 -390z m-235 -465 c0 -3 -20 -46 -45 -95 l-45 -90 -228 0 -227 0 -48 95
-47 95 320 0 c176 0 320 -2 320 -5z m-223 -453 l-92 -189 -92 181 c-51 100
-92 184 -92 189 -1 4 82 7 184 7 l184 0 -92 -188z m1084 -694 c84 -25 129
-100 129 -214 -1 -157 -128 -252 -267 -201 -101 37 -150 170 -111 299 29 97
141 149 249 116z m626 -3 c21 -9 45 -23 55 -32 17 -15 16 -18 -13 -55 -30 -37
-32 -38 -55 -23 -31 20 -94 20 -94 0 0 -9 12 -20 28 -27 104 -42 135 -62 148
-94 55 -131 -81 -232 -238 -178 -25 8 -53 23 -62 33 -15 16 -14 20 11 54 31
40 49 45 79 22 10 -8 36 -15 57 -15 61 0 46 25 -37 65 -82 39 -107 68 -108
124 -1 107 118 172 229 126z m2180 0 c21 -9 45 -23 55 -32 17 -15 16 -18 -13
-55 -30 -37 -32 -38 -55 -23 -31 20 -94 20 -94 0 0 -9 12 -20 28 -27 104 -42
135 -62 148 -94 55 -131 -81 -232 -238 -178 -25 8 -53 23 -62 33 -15 16 -14
20 11 54 31 40 49 45 79 22 10 -8 36 -15 57 -15 61 0 46 25 -37 65 -82 39
-107 68 -108 124 -1 107 118 172 229 126z m595 3 c170 -51 170 -360 -1 -417
-123 -41 -240 30 -260 158 -29 185 95 309 261 259z m-6387 -15 c4 -10 22 -60
40 -111 l32 -92 39 110 38 110 63 0 63 0 0 -210 0 -210 -56 0 -57 0 5 107 5
107 -32 -89 c-32 -89 -33 -90 -68 -93 -35 -3 -36 -2 -56 55 -38 104 -40 104
-40 6 l-1 -93 -55 0 -55 0 0 210 0 210 64 0 c51 0 65 -3 71 -17z m685 -193 l0
-210 -60 0 -60 0 0 210 0 210 60 0 60 0 0 -210z m410 50 l0 -160 80 0 80 0 0
-50 0 -50 -140 0 -140 0 0 210 0 210 60 0 60 0 0 -160z m704 -32 c33 -106 61
-201 64 -210 4 -16 -4 -18 -61 -18 l-65 0 -7 40 -7 41 -56 -3 c-56 -3 -56 -3
-65 -40 l-9 -38 -59 0 c-37 0 -59 4 -59 11 0 10 70 247 111 377 l11 32 72 0
72 0 58 -192z m480 85 l55 -108 0 108 1 107 60 0 60 0 -2 -207 -3 -208 -63 -3
-63 -3 -54 113 -55 113 0 -112 0 -113 -55 0 -55 0 0 210 0 210 60 0 60 0 54
-107z m2141 90 c4 -10 22 -60 40 -111 l32 -92 39 110 38 110 63 0 63 0 0 -210
0 -210 -56 0 -57 0 5 107 5 107 -32 -89 c-32 -89 -33 -90 -68 -93 -35 -3 -36
-2 -56 55 -38 104 -40 104 -40 6 l-1 -93 -55 0 -55 0 0 210 0 210 64 0 c51 0
65 -3 71 -17z m804 -45 c11 -35 36 -117 56 -183 20 -66 40 -132 45 -147 l9
-28 -64 0 -64 0 -11 40 -11 40 -54 0 -55 0 -6 -40 -7 -40 -64 0 c-48 0 -64 3
-61 13 3 6 32 101 64 209 l59 198 72 0 71 0 21 -62z m1743 -53 l55 -116 -5
116 -5 115 62 0 61 0 0 -210 0 -210 -63 0 -63 0 -58 118 -57 117 7 -117 7
-118 -62 0 -61 0 0 210 0 210 63 0 64 0 55 -115z m713 101 c82 -35 101 -160
35 -226 l-21 -21 41 -73 c22 -40 40 -76 40 -80 0 -3 -29 -6 -65 -6 l-65 0 -35
70 c-20 39 -42 70 -50 70 -12 0 -15 -15 -15 -70 l0 -70 -60 0 -60 0 0 210 0
210 110 0 c74 0 122 -5 145 -14z m455 -61 c13 -41 27 -75 31 -75 4 0 18 33 31
73 l25 72 61 3 c37 2 62 -1 62 -7 0 -6 -27 -69 -60 -141 -55 -120 -60 -137
-60 -200 l0 -70 -60 0 -60 0 0 71 c0 65 -5 81 -60 201 -33 73 -60 135 -60 140
0 4 28 8 63 8 l63 0 24 -75z"/>
<path d="M6590 6480 l0 -690 165 0 165 0 0 253 c-1 157 -6 297 -15 372 -8 66
-17 152 -21 190 -5 69 -5 68 60 -120 36 -104 99 -278 139 -385 l73 -195 100
-3 101 -3 91 248 c51 136 114 311 142 388 27 77 49 133 49 125 1 -8 -8 -98
-19 -200 -14 -132 -20 -255 -20 -427 l0 -243 170 0 170 0 0 690 0 690 -201 -2
-201 -3 -54 -150 c-74 -206 -158 -452 -190 -560 l-28 -90 -28 95 c-16 52 -80
233 -141 402 l-112 308 -197 0 -198 0 0 -690z"/>
<path d="M8240 6480 l0 -690 165 0 165 0 0 243 c0 177 -5 289 -20 417 -11 96
-20 184 -19 195 0 11 29 -63 64 -165 35 -102 97 -273 137 -380 l73 -195 101
-3 100 -3 92 248 c50 136 114 311 141 388 28 77 50 133 50 125 0 -8 -8 -96
-19 -195 -14 -129 -20 -250 -20 -427 l0 -248 170 0 170 0 0 690 0 690 -201 -2
-202 -3 -79 -220 c-43 -121 -101 -292 -129 -380 -28 -88 -54 -168 -58 -179 -5
-13 -16 13 -40 90 -18 60 -81 241 -139 401 l-107 293 -197 0 -198 0 0 -690z"/>
<path d="M4793 3913 c-24 -36 -24 -130 0 -166 13 -21 26 -27 52 -27 47 0 70
35 70 110 0 75 -23 110 -70 110 -27 0 -39 -6 -52 -27z"/>
<path d="M8190 3908 c-43 -71 -12 -188 49 -188 35 0 59 21 67 58 3 15 8 33 10
41 7 21 -16 94 -34 108 -32 24 -71 16 -92 -19z"/>
<path d="M3588 3905 c-3 -6 -8 -23 -12 -40 -4 -16 -9 -38 -12 -47 -4 -14 1
-18 25 -18 17 0 31 3 31 8 -1 24 -27 105 -32 97z"/>
<path d="M7042 3870 c-7 -34 -11 -64 -9 -67 3 -2 16 -3 29 -1 l24 3 -16 64
-15 64 -13 -63z"/>
<path d="M9470 3894 l0 -46 32 6 c43 9 60 25 56 55 -3 23 -8 26 -45 29 l-43 3
0 -47z"/>
</g>
</svg>
